{"asset":{"version":"2.0","generator":"Unity 2022.3.18f1 glTFast 6.2.0"},"nodes":[{"name":"ClearChannelLogo","mesh":0,"translation":[-2.324,0,-0.01],"rotation":[0.7071068,0,0,0.7071068],"scale":[0.6,1.05869007,0.9000002]},{"name":"Plane.003_1","mesh":1},{"name":"Plane.003_2","mesh":2},{"name":"Plane.003_3","mesh":3},{"name":"Plane.003","children":[1,2,3],"mesh":4,"translation":[-2.31788087,0,-0.0122974729],"rotation":[0.7071068,0,0,0.7071068],"scale":[0.6,1.05868983,0.9]},{"name":"Plane.002","mesh":5,"translation":[-2.31448936,0.0008906722,-0.06448853],"rotation":[0.7071068,0,0,0.7071068],"scale":[0.495092,1,0.7493836]},{"name":"DigitalScreenVFGITFTest","children":[0,4,5],"translation":[-35.526,0,-3.94303036]}],"extensionsRequired":["KHR_materials_unlit"],"extensionsUsed":["KHR_materials_unlit"],"buffers":[{"uri":"DigitalScreenFinal.bin","byteLength":8488}],"bufferViews":[{"buffer":0,"byteLength":24},{"buffer":0,"byteLength":24,"byteOffset":24},{"buffer":0,"byteLength":144,"byteOffset":48},{"buffer":0,"byteLength":144,"byteOffset":192},{"buffer":0,"byteLength":1032,"byteOffset":336},{"buffer":0,"byteLength":144,"byteOffset":1368},{"buffer":0,"byteLength":96,"byteOffset":1512,"byteStride":24},{"buffer":0,"byteLength":32,"byteOffset":1608,"byteStride":8},{"buffer":0,"byteLength":96,"byteOffset":1640,"byteStride":24},{"buffer":0,"byteLength":32,"byteOffset":1736,"byteStride":8},{"buffer":0,"byteLength":576,"byteOffset":1768,"byteStride":24},{"buffer":0,"byteLength":192,"byteOffset":2344,"byteStride":8},{"buffer":0,"byteLength":3312,"byteOffset":2536,"byteStride":24},{"buffer":0,"byteLength":1104,"byteOffset":5848,"byteStride":8},{"buffer":0,"byteLength":576,"byteOffset":6952,"byteStride":24},{"buffer":0,"byteLength":192,"byteOffset":7528,"byteStride":8},{"buffer":0,"byteLength":576,"byteOffset":7720,"byteStride":24},{"buffer":0,"byteLength":192,"byteOffset":8296,"byteStride":8}],"accessors":[{"bufferView":6,"componentType":5126,"count":4,"type":"VEC3","max":[0.484176934,0.0334919952,-0.880247831],"min":[-0.5007542,0.033491943,-0.964516759]},{"bufferView":6,"componentType":5126,"count":4,"type":"VEC3","byteOffset":12},{"bufferView":7,"componentType":5126,"count":4,"type":"VEC2"},{"bufferView":0,"componentType":5125,"count":6,"type":"SCALAR"},{"bufferView":8,"componentType":5126,"count":4,"type":"VEC3","max":[0.823388934,-0.0588736,0.853436649],"min":[-0.823388934,-0.0588736,-0.853436649]},{"bufferView":8,"componentType":5126,"count":4,"type":"VEC3","byteOffset":12},{"bufferView":9,"componentType":5126,"count":4,"type":"VEC2"},{"bufferView":1,"componentType":5125,"count":6,"type":"SCALAR"},{"bufferView":10,"componentType":5126,"count":24,"type":"VEC3","max":[0.8265732,0.265528381,1.95526433],"min":[0.4805047,0.011206463,1.94301057]},{"bufferView":10,"componentType":5126,"count":24,"type":"VEC3","byteOffset":12},{"bufferView":11,"componentType":5126,"count":24,"type":"VEC2"},{"bufferView":2,"componentType":5125,"count":36,"type":"SCALAR"},{"bufferView":16,"componentType":5126,"count":24,"type":"VEC3","max":[-0.4762491,0.265528381,1.95526433],"min":[-0.8223182,0.011206463,1.94301057]},{"bufferView":16,"componentType":5126,"count":24,"type":"VEC3","byteOffset":12},{"bufferView":17,"componentType":5126,"count":24,"type":"VEC2"},{"bufferView":3,"componentType":5125,"count":36,"type":"SCALAR"},{"bufferView":12,"componentType":5126,"count":138,"type":"VEC3","max":[1,0.03176993,1.95572162],"min":[-1,-0.09511484,-1]},{"bufferView":12,"componentType":5126,"count":138,"type":"VEC3","byteOffset":12},{"bufferView":13,"componentType":5126,"count":138,"type":"VEC2"},{"bufferView":4,"componentType":5125,"count":258,"type":"SCALAR"},{"bufferView":14,"componentType":5126,"count":24,"type":"VEC3","max":[1,0.07288801,1],"min":[-1,0,-1]},{"bufferView":14,"componentType":5126,"count":24,"type":"VEC3","byteOffset":12},{"bufferView":15,"componentType":5126,"count":24,"type":"VEC2"},{"bufferView":5,"componentType":5125,"count":36,"type":"SCALAR"}],"materials":[{"name":"DigitalScreenVF","pbrMetallicRoughness":{"metallicFactor":0}},{"name":"displayImage","pbrMetallicRoughness":{"metallicFactor":0}},{"name":"ScreenMaterial","pbrMetallicRoughness":{"metallicFactor":0},"extensions":{"KHR_materials_unlit":{}}}],"meshes":[{"name":"Plane.003","primitives":[{"attributes":{"POSITION":0,"NORMAL":1,"TEXCOORD_0":2},"indices":3,"material":0}]},{"name":"Plane.003","primitives":[{"attributes":{"POSITION":4,"NORMAL":5,"TEXCOORD_0":6},"indices":7,"material":1}]},{"name":"Plane.003","primitives":[{"attributes":{"POSITION":8,"NORMAL":9,"TEXCOORD_0":10},"indices":11,"material":1}]},{"name":"Plane.003","primitives":[{"attributes":{"POSITION":12,"NORMAL":13,"TEXCOORD_0":14},"indices":15,"material":1}]},{"name":"Plane.003","primitives":[{"attributes":{"POSITION":16,"NORMAL":17,"TEXCOORD_0":18},"indices":19,"material":1}]},{"name":"Plane.004","primitives":[{"attributes":{"POSITION":20,"NORMAL":21,"TEXCOORD_0":22},"indices":23,"material":2}]}],"scene":0,"scenes":[{"name":"DigitalScreenVFGITFTest","nodes":[6]}]}