{"asset":{"version":"2.0","generator":"Unity 2022.3.18f1 glTFast 6.2.0"},"nodes":[{"name":"defaultMaterialPosters.253","mesh":0,"translation":[-5000,13297,2291],"rotation":[0.5,0.49999994,0.5000002,0.4999999],"scale":[10,10,10]},{"name":"defaultMaterialLightNads.191","mesh":1,"translation":[-20235,17968,2291],"rotation":[0.49999997,0.5,0.5000002,0.499999881],"scale":[10,10,10]},{"name":"LightNadsSeparated","children":[0,1],"translation":[-2.06737137,0,1.86604023],"rotation":[-0.7071069,0,0,0.70710665],"scale":[0.00125,0.00125000009,0.00125000009]}],"buffers":[{"uri":"LightNadsSeparated.bin","byteLength":353976}],"bufferViews":[{"buffer":0,"byteLength":1752},{"buffer":0,"byteLength":83136,"byteOffset":1752},{"buffer":0,"byteLength":10720,"byteOffset":84888,"byteStride":40},{"buffer":0,"byteLength":2144,"byteOffset":95608,"byteStride":8},{"buffer":0,"byteLength":213520,"byteOffset":97752,"byteStride":40},{"buffer":0,"byteLength":42704,"byteOffset":311272,"byteStride":8}],"accessors":[{"bufferView":2,"componentType":5126,"count":268,"type":"VEC3","max":[810,-29.0967178,907.5389],"min":[802.718,-229.096771,307.538757]},{"bufferView":2,"componentType":5126,"count":268,"type":"VEC3","byteOffset":12},{"bufferView":2,"componentType":5126,"count":268,"type":"VEC4","byteOffset":24},{"bufferView":3,"componentType":5126,"count":268,"type":"VEC2"},{"bufferView":0,"componentType":5125,"count":438,"type":"SCALAR"},{"bufferView":4,"componentType":5126,"count":5338,"type":"VEC3","max":[610,10.7133636,1000.00012],"min":[-9.999939,-9.848068,-9.15527344E-05]},{"bufferView":4,"componentType":5126,"count":5338,"type":"VEC3","byteOffset":12},{"bufferView":4,"componentType":5126,"count":5338,"type":"VEC4","byteOffset":24},{"bufferView":5,"componentType":5126,"count":5338,"type":"VEC2"},{"bufferView":1,"componentType":5125,"count":20784,"type":"SCALAR"}],"materials":[{"name":"subway_lightsNads","pbrMetallicRoughness":{"metallicFactor":0}}],"meshes":[{"name":"defaultMaterial.263","primitives":[{"attributes":{"POSITION":0,"NORMAL":1,"TANGENT":2,"TEXCOORD_0":3},"indices":4,"material":0}]},{"name":"defaultMaterial.201","primitives":[{"attributes":{"POSITION":5,"NORMAL":6,"TANGENT":7,"TEXCOORD_0":8},"indices":9,"material":0}]}],"scene":0,"scenes":[{"name":"SampleScene","nodes":[2]}]}