{"asset":{"version":"2.0","generator":"Unity 2022.3.18f1 glTFast 6.2.0"},"nodes":[{"name":"defaultMaterial.010","mesh":0},{"name":"plastic","children":[0],"translation":[0.236296,277.733917,219.5255],"rotation":[-0.7071069,0,0,0.70710665],"scale":[9.999999,10,10]},{"name":"defaultMaterial.008","mesh":1,"translation":[0,-3.893068E-06,0]},{"name":"plastic_red","children":[2],"translation":[-0.236263,277.733917,-964.6408],"rotation":[0,0.7071068,0.7071068,7.07107E-08],"scale":[10.0000019,10,10]},{"name":"defaultMaterial.003","mesh":2},{"name":"room","children":[4],"rotation":[-0.7071069,0,0,0.70710665],"scale":[9.999999,10,10]},{"name":"defaultMaterial.005","mesh":3,"translation":[0,0,2.69405677E-06]},{"name":"subway_bench","children":[6],"translation":[-1733.82507,186.580612,-200.512054],"rotation":[0,0.7071068,0,0.7071067],"scale":[10,9.999999,10.000001]},{"name":"defaultMaterial.004","mesh":4,"translation":[0,0,2.95293576E-05]},{"name":"subway_bench001","children":[8],"translation":[-3478.26343,186.580612,73.5508652],"rotation":[0,-0.7071068,0,0.7071067],"scale":[10,9.999999,10.000001]},{"name":"defaultMaterial.006","mesh":5},{"name":"subway_floor","children":[10],"rotation":[-0.7071069,0,0,0.70710665],"scale":[9.999999,10,10]},{"name":"defaultMaterial.002","mesh":6,"translation":[6.14426972E-06,0,-4.03076519E-05]},{"name":"subway_lightsNads","children":[12],"translation":[-5000.001,2290.96753,3000],"rotation":[0,0.7071068,0,0.7071067],"scale":[10,9.999999,10.000001]},{"name":"defaultMaterial.007","mesh":7},{"name":"subway_pillar","children":[14],"translation":[0,0,-365.75116],"rotation":[-0.69351995,-0.13794969,-0.13794969,0.6935199],"scale":[7.82925367,7.82925367,7.82925463]},{"name":"defaultMaterial.001","mesh":8,"translation":[3.05175781E-05,4.12663176E-05,-5.9480335E-06]},{"name":"subway_rails","children":[16],"translation":[-4800,-800.0024,-4100],"rotation":[-0.7071069,0,0,0.70710665],"scale":[9.999999,10,10]},{"name":"defaultMaterial","mesh":9,"translation":[-3.05175781E-05,2.22598374E-06,4.91419132E-06]},{"name":"subway_SLinformationSign","children":[18],"translation":[2796.95264,969.9999,-365.751251],"rotation":[-0.7071069,0,0,0.70710665],"scale":[9.999999,10,10]},{"name":"defaultMaterial.011","mesh":10},{"name":"subway_trashcan","children":[20],"rotation":[-0.7071069,0,0,0.70710665],"scale":[9.999999,10,10]},{"name":"defaultMaterial.009","mesh":11,"translation":[0,-7.62939453E-06,0]},{"name":"subway_trashcan_red","children":[22],"translation":[0,0,-745.577],"rotation":[0,0.7071068,0.7071068,7.07107E-08],"scale":[10.0000019,10,10]},{"name":"Collada visual scene group","children":[1,3,5,7,9,11,13,15,17,19,21,23],"rotation":[0.7071069,0,0,0.70710665]},{"name":"FinalV1glb","children":[24],"rotation":[-0.7071069,0,0,0.70710665],"scale":[0.00125,0.00125000009,0.00125000009]}],"buffers":[{"uri":"StationExtended.bin","byteLength":2254456}],"bufferViews":[{"buffer":0,"byteLength":18576},{"buffer":0,"byteLength":18576,"byteOffset":18576},{"buffer":0,"byteLength":576,"byteOffset":37152},{"buffer":0,"byteLength":47208,"byteOffset":37728},{"buffer":0,"byteLength":47208,"byteOffset":84936},{"buffer":0,"byteLength":240,"byteOffset":132144},{"buffer":0,"byteLength":85056,"byteOffset":132384},{"buffer":0,"byteLength":192,"byteOffset":217440},{"buffer":0,"byteLength":151104,"byteOffset":217632},{"buffer":0,"byteLength":7728,"byteOffset":368736},{"buffer":0,"byteLength":42576,"byteOffset":376464},{"buffer":0,"byteLength":42144,"byteOffset":419040},{"buffer":0,"byteLength":33880,"byteOffset":461184,"byteStride":40},{"buffer":0,"byteLength":6776,"byteOffset":495064,"byteStride":8},{"buffer":0,"byteLength":33880,"byteOffset":501840,"byteStride":40},{"buffer":0,"byteLength":6776,"byteOffset":535720,"byteStride":8},{"buffer":0,"byteLength":2800,"byteOffset":542496,"byteStride":40},{"buffer":0,"byteLength":560,"byteOffset":545296,"byteStride":8},{"buffer":0,"byteLength":880,"byteOffset":545856,"byteStride":40},{"buffer":0,"byteLength":176,"byteOffset":546736,"byteStride":8},{"buffer":0,"byteLength":226080,"byteOffset":546912,"byteStride":40},{"buffer":0,"byteLength":45216,"byteOffset":772992,"byteStride":8},{"buffer":0,"byteLength":1280,"byteOffset":818208,"byteStride":40},{"buffer":0,"byteLength":256,"byteOffset":819488,"byteStride":8},{"buffer":0,"byteLength":449600,"byteOffset":819744,"byteStride":40},{"buffer":0,"byteLength":89920,"byteOffset":1269344,"byteStride":8},{"buffer":0,"byteLength":42000,"byteOffset":1359264,"byteStride":40},{"buffer":0,"byteLength":8400,"byteOffset":1401264,"byteStride":8},{"buffer":0,"byteLength":165840,"byteOffset":1409664,"byteStride":40},{"buffer":0,"byteLength":33168,"byteOffset":1575504,"byteStride":8},{"buffer":0,"byteLength":163000,"byteOffset":1608672,"byteStride":40},{"buffer":0,"byteLength":32600,"byteOffset":1771672,"byteStride":8},{"buffer":0,"byteLength":161040,"byteOffset":1804272,"byteStride":40},{"buffer":0,"byteLength":64416,"byteOffset":1965312,"byteStride":16},{"buffer":0,"byteLength":160520,"byteOffset":2029728,"byteStride":40},{"buffer":0,"byteLength":64208,"byteOffset":2190248,"byteStride":16}],"accessors":[{"bufferView":12,"componentType":5126,"count":847,"type":"VEC3","max":[12.4302387,12.2422733,42.88288],"min":[-12.220953,-12.4906139,-1.00734711]},{"bufferView":12,"componentType":5126,"count":847,"type":"VEC3","byteOffset":12},{"bufferView":12,"componentType":5126,"count":847,"type":"VEC4","byteOffset":24},{"bufferView":13,"componentType":5126,"count":847,"type":"VEC2"},{"bufferView":0,"componentType":5125,"count":4644,"type":"SCALAR"},{"bufferView":14,"componentType":5126,"count":847,"type":"VEC3","max":[12.4302387,12.2422714,42.88288],"min":[-12.220953,-12.4906158,-1.00734711]},{"bufferView":14,"componentType":5126,"count":847,"type":"VEC3","byteOffset":12},{"bufferView":14,"componentType":5126,"count":847,"type":"VEC4","byteOffset":24},{"bufferView":15,"componentType":5126,"count":847,"type":"VEC2"},{"bufferView":1,"componentType":5125,"count":4644,"type":"SCALAR"},{"bufferView":16,"componentType":5126,"count":70,"type":"VEC3","max":[9272.39,510,239.810028],"min":[-500,-510,-80.00001]},{"bufferView":16,"componentType":5126,"count":70,"type":"VEC3","byteOffset":12},{"bufferView":16,"componentType":5126,"count":70,"type":"VEC4","byteOffset":24},{"bufferView":17,"componentType":5126,"count":70,"type":"VEC2"},{"bufferView":2,"componentType":5125,"count":144,"type":"SCALAR"},{"bufferView":32,"componentType":5126,"count":4026,"type":"VEC3","max":[47.9286728,67.29839,13.0973969],"min":[-13.6871681,-18.6580811,-187.211441]},{"bufferView":32,"componentType":5126,"count":4026,"type":"VEC3","byteOffset":12},{"bufferView":32,"componentType":5126,"count":4026,"type":"VEC4","byteOffset":24},{"bufferView":33,"componentType":5126,"count":4026,"type":"VEC2"},{"bufferView":33,"componentType":5126,"count":4026,"type":"VEC2","byteOffset":8},{"bufferView":3,"componentType":5125,"count":11802,"type":"SCALAR"},{"bufferView":34,"componentType":5126,"count":4013,"type":"VEC3","max":[47.9286728,67.2984,13.0973816],"min":[-13.6871719,-18.6580734,-187.211456]},{"bufferView":34,"componentType":5126,"count":4013,"type":"VEC3","byteOffset":12},{"bufferView":34,"componentType":5126,"count":4013,"type":"VEC4","byteOffset":24},{"bufferView":35,"componentType":5126,"count":4013,"type":"VEC2"},{"bufferView":35,"componentType":5126,"count":4013,"type":"VEC2","byteOffset":8},{"bufferView":4,"componentType":5125,"count":11802,"type":"SCALAR"},{"bufferView":18,"componentType":5126,"count":22,"type":"VEC3","max":[9272.39,299.999969,0],"min":[-500,-299.999969,0]},{"bufferView":18,"componentType":5126,"count":22,"type":"VEC3","byteOffset":12},{"bufferView":18,"componentType":5126,"count":22,"type":"VEC4","byteOffset":24},{"bufferView":19,"componentType":5126,"count":22,"type":"VEC2"},{"bufferView":5,"componentType":5125,"count":60,"type":"SCALAR"},{"bufferView":20,"componentType":5126,"count":5652,"type":"VEC3","max":[809.999939,10.7133484,1000.00012],"min":[-10.000061,-229.096741,0]},{"bufferView":20,"componentType":5126,"count":5652,"type":"VEC3","byteOffset":12},{"bufferView":20,"componentType":5126,"count":5652,"type":"VEC4","byteOffset":24},{"bufferView":21,"componentType":5126,"count":5652,"type":"VEC2"},{"bufferView":6,"componentType":5125,"count":21264,"type":"SCALAR"},{"bufferView":22,"componentType":5126,"count":32,"type":"VEC3","max":[50.5649948,50.56499,306.3],"min":[-50.5649948,-50.565,1.52587891E-05]},{"bufferView":22,"componentType":5126,"count":32,"type":"VEC3","byteOffset":12},{"bufferView":22,"componentType":5126,"count":32,"type":"VEC4","byteOffset":24},{"bufferView":23,"componentType":5126,"count":32,"type":"VEC2"},{"bufferView":7,"componentType":5125,"count":48,"type":"SCALAR"},{"bufferView":24,"componentType":5126,"count":11240,"type":"VEC3","max":[980,97.2531738,18.6275635],"min":[-20,-917.2532,0]},{"bufferView":24,"componentType":5126,"count":11240,"type":"VEC3","byteOffset":12},{"bufferView":24,"componentType":5126,"count":11240,"type":"VEC4","byteOffset":24},{"bufferView":25,"componentType":5126,"count":11240,"type":"VEC2"},{"bufferView":8,"componentType":5125,"count":37776,"type":"SCALAR"},{"bufferView":26,"componentType":5126,"count":1050,"type":"VEC3","max":[160.750031,23.5001411,105.999992],"min":[-160.749969,-23.5,-96.99998]},{"bufferView":26,"componentType":5126,"count":1050,"type":"VEC3","byteOffset":12},{"bufferView":26,"componentType":5126,"count":1050,"type":"VEC4","byteOffset":24},{"bufferView":27,"componentType":5126,"count":1050,"type":"VEC2"},{"bufferView":9,"componentType":5125,"count":1932,"type":"SCALAR"},{"bufferView":28,"componentType":5126,"count":4146,"type":"VEC3","max":[16.3083687,0,70.24556],"min":[-16.3083649,-38.316452,26.22786]},{"bufferView":28,"componentType":5126,"count":4146,"type":"VEC3","byteOffset":12},{"bufferView":28,"componentType":5126,"count":4146,"type":"VEC4","byteOffset":24},{"bufferView":29,"componentType":5126,"count":4146,"type":"VEC2"},{"bufferView":10,"componentType":5125,"count":10644,"type":"SCALAR"},{"bufferView":30,"componentType":5126,"count":4075,"type":"VEC3","max":[16.3083687,1.40746307,100.067337],"min":[-16.3083649,-38.31646,26.22786]},{"bufferView":30,"componentType":5126,"count":4075,"type":"VEC3","byteOffset":12},{"bufferView":30,"componentType":5126,"count":4075,"type":"VEC4","byteOffset":24},{"bufferView":31,"componentType":5126,"count":4075,"type":"VEC2"},{"bufferView":11,"componentType":5125,"count":10536,"type":"SCALAR"}],"materials":[{"name":"plastic","pbrMetallicRoughness":{"metallicFactor":0},"alphaMode":"BLEND","doubleSided":true},{"name":"plasticRed","pbrMetallicRoughness":{"metallicFactor":0},"alphaMode":"BLEND","doubleSided":true},{"name":"subway_room","pbrMetallicRoughness":{"metallicFactor":0},"doubleSided":true},{"name":"subway_bench","pbrMetallicRoughness":{"metallicFactor":0},"doubleSided":true},{"name":"subway_floor","pbrMetallicRoughness":{"metallicFactor":0},"doubleSided":true},{"name":"subway_lightsNads","pbrMetallicRoughness":{"metallicFactor":0},"doubleSided":true},{"name":"subway_pillar","pbrMetallicRoughness":{"metallicFactor":0},"doubleSided":true},{"name":"subway_rails","pbrMetallicRoughness":{"metallicFactor":0},"alphaMode":"BLEND","doubleSided":true},{"name":"subway_SLinformationSign","pbrMetallicRoughness":{"metallicFactor":0},"alphaMode":"BLEND","doubleSided":true},{"name":"subway_trashcan","pbrMetallicRoughness":{"metallicFactor":0},"doubleSided":true},{"name":"subway_trashcanRed","pbrMetallicRoughness":{"metallicFactor":0},"doubleSided":true}],"meshes":[{"name":"defaultMaterial.010","primitives":[{"attributes":{"POSITION":0,"NORMAL":1,"TANGENT":2,"TEXCOORD_0":3},"indices":4,"material":0}]},{"name":"defaultMaterial.008","primitives":[{"attributes":{"POSITION":5,"NORMAL":6,"TANGENT":7,"TEXCOORD_0":8},"indices":9,"material":1}]},{"name":"defaultMaterial.003","primitives":[{"attributes":{"POSITION":10,"NORMAL":11,"TANGENT":12,"TEXCOORD_0":13},"indices":14,"material":2}]},{"name":"defaultMaterial.005","primitives":[{"attributes":{"POSITION":15,"NORMAL":16,"TANGENT":17,"TEXCOORD_0":18,"TEXCOORD_1":19},"indices":20,"material":3}]},{"name":"defaultMaterial.004","primitives":[{"attributes":{"POSITION":21,"NORMAL":22,"TANGENT":23,"TEXCOORD_0":24,"TEXCOORD_1":25},"indices":26,"material":3}]},{"name":"defaultMaterial.006","primitives":[{"attributes":{"POSITION":27,"NORMAL":28,"TANGENT":29,"TEXCOORD_0":30},"indices":31,"material":4}]},{"name":"defaultMaterial.002","primitives":[{"attributes":{"POSITION":32,"NORMAL":33,"TANGENT":34,"TEXCOORD_0":35},"indices":36,"material":5}]},{"name":"defaultMaterial.007","primitives":[{"attributes":{"POSITION":37,"NORMAL":38,"TANGENT":39,"TEXCOORD_0":40},"indices":41,"material":6}]},{"name":"defaultMaterial.001","primitives":[{"attributes":{"POSITION":42,"NORMAL":43,"TANGENT":44,"TEXCOORD_0":45},"indices":46,"material":7}]},{"name":"defaultMaterial","primitives":[{"attributes":{"POSITION":47,"NORMAL":48,"TANGENT":49,"TEXCOORD_0":50},"indices":51,"material":8}]},{"name":"defaultMaterial.011","primitives":[{"attributes":{"POSITION":52,"NORMAL":53,"TANGENT":54,"TEXCOORD_0":55},"indices":56,"material":9}]},{"name":"defaultMaterial.009","primitives":[{"attributes":{"POSITION":57,"NORMAL":58,"TANGENT":59,"TEXCOORD_0":60},"indices":61,"material":10}]}],"scene":0,"scenes":[{"name":"FinalV1glb","nodes":[25]}]}